# xmcd
#
# Track frame offsets:
#	150
#	14138
#	28724
#	47291
#	64040
#	80818
#	102684
#	121945
#	136515
#	153258
#	169186
#	184456
#	207249
#
# Disc length: 2987 seconds
#
# Revision: 0
# Processed by: cddbd v1.5.2PL0 Copyright (c) Steve Scherf et al.
# Submitted via: audiograbber 1.83.01
#
DISCID=b10ba90d
DTITLE=Trisha Yearwood - Everybody Knows
DYEAR=1996
DGENRE=Country
TTITLE0=I Want To Live Again
TTITLE1=It's Alright
TTITLE2=Even A Cowboy Can Dream
TTITLE3=Believe Me Baby (I Lied)
TTITLE4=I Need You
TTITLE5=Little Hercules
TTITLE6=Under The Rainbow
TTITLE7=Everybody Knows
TTITLE8=Hello, I'm Gone
TTITLE9=Find A River
TTITLE10=The Chance I Take
TTITLE11=Maybe It's Love
TTITLE12=A Lover Is Forever
EXTD=
EXTT0=
EXTT1=
EXTT2=
EXTT3=
EXTT4=
EXTT5=
EXTT6=
EXTT7=
EXTT8=
EXTT9=
EXTT10=
EXTT11=
EXTT12=
PLAYORDER=
